<svg width="26" height="26" viewBox="0 0 26 26" fill="none" xmlns="http://www.w3.org/2000/svg">
<path d="M18.3662 15.4615C18.4646 14.6492 18.5385 13.8369 18.5385 13C18.5385 12.163 18.4646 11.3507 18.3662 10.5384H22.5262C22.7231 11.3261 22.8462 12.1507 22.8462 13C22.8462 13.8492 22.7231 14.6738 22.5262 15.4615M16.1877 22.3046C16.9262 20.9384 17.4923 19.4615 17.8862 17.923H21.5169C20.3245 19.9763 18.4328 21.5316 16.1877 22.3046ZM15.88 15.4615H10.12C9.99694 14.6492 9.92309 13.8369 9.92309 13C9.92309 12.163 9.99694 11.3384 10.12 10.5384H15.88C15.9908 11.3384 16.0769 12.163 16.0769 13C16.0769 13.8369 15.9908 14.6492 15.88 15.4615ZM13 22.7969C11.9785 21.32 11.1539 19.683 10.6492 17.923H15.3508C14.8462 19.683 14.0216 21.32 13 22.7969ZM8.07694 8.07688H4.48309C5.66322 6.01806 7.55361 4.46024 9.80001 3.69534C9.06155 5.06149 8.50771 6.53841 8.07694 8.07688ZM4.48309 17.923H8.07694C8.50771 19.4615 9.06155 20.9384 9.80001 22.3046C7.55832 21.5312 5.67059 19.9756 4.48309 17.923ZM3.47386 15.4615C3.27694 14.6738 3.15386 13.8492 3.15386 13C3.15386 12.1507 3.27694 11.3261 3.47386 10.5384H7.63386C7.5354 11.3507 7.46155 12.163 7.46155 13C7.46155 13.8369 7.5354 14.6492 7.63386 15.4615M13 3.19072C14.0216 4.66765 14.8462 6.31688 15.3508 8.07688H10.6492C11.1539 6.31688 11.9785 4.66765 13 3.19072ZM21.5169 8.07688H17.8862C17.501 6.55252 16.9306 5.08106 16.1877 3.69534C18.4523 4.47072 20.3354 6.0338 21.5169 8.07688ZM13 0.692261C6.19386 0.692261 0.692322 6.23072 0.692322 13C0.692322 16.2642 1.98902 19.3947 4.29716 21.7028C5.44004 22.8457 6.79683 23.7523 8.29006 24.3708C9.7833 24.9893 11.3837 25.3076 13 25.3076C16.2642 25.3076 19.3947 24.0109 21.7029 21.7028C24.011 19.3947 25.3077 16.2642 25.3077 13C25.3077 11.3837 24.9894 9.78324 24.3708 8.29C23.7523 6.79676 22.8457 5.43997 21.7029 4.2971C20.56 3.15423 19.2032 2.24765 17.71 1.62913C16.2167 1.01061 14.6163 0.692261 13 0.692261Z" fill="#444CE7"/>
</svg>
